<svg id="Layer_1" data-name="Layer 1" xmlns="http://www.w3.org/2000/svg" viewBox="0 0 512 512"><title>vimeo-flat</title><path d="M502.65,0H256.77C115.06,0,0,109.89,0,251.61v245.9C0,503.43,5,512,10.86,512h245.9C398.47,512,512,393.32,512,251.61V5.71C512-.2,508.56,0,502.65,0Z" fill="#f40404"/><path d="M270.16,290.2c-8.94,0-15.83-23.25-26.06-63.9-10.59-42-10.52-117.75-54.54-109.17-41.51,8.1-96.06,72.8-96.06,72.8l13,17s26.88-21,35.83-10.53,43.14,137.49,54.54,160.92c10,20.56,37.44,47.73,67.57,28.31S394.72,281.29,412.63,181s-120.51-79.26-135.15,8.09c36.63-21.86,56.19,8.89,37.44,43.67S279.12,290.2,270.16,290.2Z" fill="#fff"/></svg>